<svg width="33" height="35" viewBox="0 0 33 35" fill="none" xmlns="http://www.w3.org/2000/svg">
<path d="M11.3438 29.5312C11.9133 29.5312 12.375 29.0416 12.375 28.4375C12.375 27.8334 11.9133 27.3438 11.3438 27.3438C10.7742 27.3438 10.3125 27.8334 10.3125 28.4375C10.3125 29.0416 10.7742 29.5312 11.3438 29.5312Z" stroke="white" stroke-width="2" stroke-linecap="round" stroke-linejoin="round"/>
<path d="M25.7812 29.5312C26.3508 29.5312 26.8125 29.0416 26.8125 28.4375C26.8125 27.8334 26.3508 27.3438 25.7812 27.3438C25.2117 27.3438 24.75 27.8334 24.75 28.4375C24.75 29.0416 25.2117 29.5312 25.7812 29.5312Z" stroke="white" stroke-width="2" stroke-linecap="round" stroke-linejoin="round"/>
<path d="M3.09375 5.46875H7.21875L10.3125 24.0625H26.8125" stroke="white" stroke-width="2" stroke-linecap="round" stroke-linejoin="round"/>
<path d="M10.3125 19.6875H26.3897C26.5089 19.6876 26.6245 19.6438 26.7168 19.5637C26.809 19.4835 26.8722 19.372 26.8956 19.2479L28.7519 9.4042C28.7669 9.32482 28.7651 9.24291 28.7466 9.16437C28.7281 9.08584 28.6934 9.01263 28.645 8.95004C28.5966 8.88746 28.5357 8.83705 28.4666 8.80245C28.3976 8.76786 28.3223 8.74994 28.2459 8.75H8.25" stroke="white" stroke-width="2" stroke-linecap="round" stroke-linejoin="round"/>
</svg>
