<svg width="68" height="66" viewBox="0 0 68 66" fill="none" xmlns="http://www.w3.org/2000/svg">
<path d="M59.0846 56.5857V30.338M8.46805 30.338V56.5857M4.25 58.6047H63.3026M37.9944 58.6047V39.4237C37.9944 38.6205 38.3277 37.8502 38.9209 37.2822C39.5142 36.7142 40.3189 36.3952 41.1579 36.3952H49.594C50.433 36.3952 51.2377 36.7142 51.8309 37.2822C52.4242 37.8502 52.7575 38.6205 52.7575 39.4237V58.6047M50.4468 6.10938H17.1058C14.2336 6.10938 11.6395 7.62366 10.5243 9.95315L4.8168 21.8832C2.89495 25.8974 6.08617 30.4453 11.0371 30.5904H11.3007C15.4397 30.5904 18.7943 27.4129 18.7943 23.9994C18.7943 27.4066 22.1503 30.5904 26.2893 30.5904C30.4282 30.5904 33.7763 27.64 33.7763 23.9994C33.7763 27.4066 37.131 30.5904 41.2699 30.5904C45.4089 30.5904 48.7649 27.64 48.7649 23.9994C48.7649 27.64 52.1195 30.5904 56.2585 30.5904H56.5155C61.4665 30.4427 64.6577 25.8948 62.7358 21.8832L57.0283 9.95315C55.9131 7.62366 53.319 6.10938 50.4468 6.10938ZM17.9586 36.3952H28.5038C29.3428 36.3952 30.1474 36.7142 30.7407 37.2822C31.334 37.8502 31.6673 38.6205 31.6673 39.4237V50.5285H14.7951V39.4237C14.7951 38.6205 15.1284 37.8502 15.7217 37.2822C16.315 36.7142 17.1196 36.3952 17.9586 36.3952Z" stroke="url(#paint0_linear_8_415)" stroke-width="3" stroke-linecap="round" stroke-linejoin="round"/>
<defs>
<linearGradient id="paint0_linear_8_415" x1="63.3026" y1="32.357" x2="6.00404" y2="32.357" gradientUnits="userSpaceOnUse">
<stop stop-color="#F45C1E"/>
<stop offset="0.484375" stop-color="#F3711C"/>
<stop offset="1" stop-color="#F3821E"/>
</linearGradient>
</defs>
</svg>
