<svg width="33" height="33" viewBox="0 0 33 33" fill="none" xmlns="http://www.w3.org/2000/svg">
<path d="M5.15625 13.6641V28.875C5.15625 29.1485 5.2649 29.4108 5.4583 29.6042C5.65169 29.7976 5.914 29.9062 6.1875 29.9062H12.375V21.1406C12.375 20.7304 12.538 20.3369 12.8281 20.0468C13.1182 19.7567 13.5116 19.5938 13.9219 19.5938H19.0781C19.4884 19.5938 19.8818 19.7567 20.1719 20.0468C20.462 20.3369 20.625 20.7304 20.625 21.1406V29.9062H26.8125C27.086 29.9062 27.3483 29.7976 27.5417 29.6042C27.7351 29.4108 27.8438 29.1485 27.8438 28.875V13.6641" stroke="white" stroke-width="2" stroke-linecap="round" stroke-linejoin="round"/>
<path d="M30.9375 16.5L17.2019 3.35157C16.8796 3.01125 16.1262 3.00739 15.7981 3.35157L2.0625 16.5M25.7812 11.5371V4.125H22.6875V8.57227" stroke="white" stroke-width="2" stroke-linecap="round" stroke-linejoin="round"/>
</svg>
