<svg width="122" height="121" viewBox="0 0 122 121" fill="none" xmlns="http://www.w3.org/2000/svg">
<path d="M106.75 105.875V56.7188M15.25 56.7188V105.875M7.625 109.656H114.375M68.625 109.656V73.7344C68.625 72.2301 69.2275 70.7874 70.3 69.7238C71.3725 68.6601 72.827 68.0625 74.3438 68.0625H89.5938C91.1105 68.0625 92.565 68.6601 93.6375 69.7238C94.71 70.7874 95.3125 72.2301 95.3125 73.7344V109.656M91.1354 11.3438H30.8646C25.6724 11.3438 20.983 14.1797 18.9672 18.5423L8.64961 40.8848C5.17547 48.4024 10.9443 56.9196 19.8941 57.1914H20.3707C27.8527 57.1914 33.917 51.2407 33.917 44.848C33.917 51.2288 39.9836 57.1914 47.4656 57.1914C54.9477 57.1914 61 51.6661 61 44.848C61 51.2288 67.0643 57.1914 74.5463 57.1914C82.0283 57.1914 88.095 51.6661 88.095 44.848C88.095 51.6661 94.1592 57.1914 101.641 57.1914H102.106C111.056 56.9149 116.825 48.3976 113.35 40.8848L103.033 18.5423C101.017 14.1797 96.3276 11.3438 91.1354 11.3438ZM32.4062 68.0625H51.4688C52.9855 68.0625 54.44 68.6601 55.5125 69.7238C56.585 70.7874 57.1875 72.2301 57.1875 73.7344V94.5312H26.6875V73.7344C26.6875 72.2301 27.29 70.7874 28.3625 69.7238C29.435 68.6601 30.8895 68.0625 32.4062 68.0625Z" stroke="white" stroke-width="5" stroke-linecap="round" stroke-linejoin="round"/>
</svg>

