<svg width="33" height="35" viewBox="0 0 33 35" fill="none" xmlns="http://www.w3.org/2000/svg">
<path d="M20.625 12.0312V9.29688C20.625 8.57167 20.3534 7.87617 19.8699 7.36338C19.3864 6.85059 18.7306 6.5625 18.0469 6.5625H5.67188C4.98811 6.5625 4.33236 6.85059 3.84887 7.36338C3.36537 7.87617 3.09375 8.57167 3.09375 9.29688V25.7031C3.09375 26.4283 3.36537 27.1238 3.84887 27.6366C4.33236 28.1494 4.98811 28.4375 5.67188 28.4375H18.0469C18.7306 28.4375 19.3864 28.1494 19.8699 27.6366C20.3534 27.1238 20.625 26.4283 20.625 25.7031V22.9688M24.75 12.0312L29.9062 17.5L24.75 22.9688M12.3105 17.5H29.9062" stroke="white" stroke-width="2" stroke-linecap="round" stroke-linejoin="round"/>
</svg>
