<svg width="112" height="105" viewBox="0 0 112 105" fill="none" xmlns="http://www.w3.org/2000/svg">
<path d="M101.75 97.875V48.7188M10.25 48.7188V97.875M2.625 101.656H109.375M63.625 101.656V65.7344C63.625 64.2301 64.2275 62.7874 65.3 61.7238C66.3725 60.6601 67.827 60.0625 69.3438 60.0625H84.5938C86.1105 60.0625 87.565 60.6601 88.6375 61.7238C89.71 62.7874 90.3125 64.2301 90.3125 65.7344V101.656M86.1354 3.34375H25.8646C20.6724 3.34375 15.983 6.17969 13.9672 10.5423L3.64961 32.8848C0.175469 40.4024 5.94426 48.9196 14.8941 49.1914H15.3707C22.8527 49.1914 28.917 43.2407 28.917 36.848C28.917 43.2288 34.9836 49.1914 42.4656 49.1914C49.9477 49.1914 56 43.6661 56 36.848C56 43.2288 62.0643 49.1914 69.5463 49.1914C77.0283 49.1914 83.095 43.6661 83.095 36.848C83.095 43.6661 89.1592 49.1914 96.6412 49.1914H97.1059C106.056 48.9149 111.825 40.3976 108.35 32.8848L98.0328 10.5423C96.017 6.17969 91.3276 3.34375 86.1354 3.34375ZM27.4062 60.0625H46.4688C47.9855 60.0625 49.44 60.6601 50.5125 61.7238C51.585 62.7874 52.1875 64.2301 52.1875 65.7344V86.5312H21.6875V65.7344C21.6875 64.2301 22.29 62.7874 23.3625 61.7238C24.435 60.6601 25.8895 60.0625 27.4062 60.0625Z" stroke="white" stroke-width="5" stroke-linecap="round" stroke-linejoin="round"/>
</svg>
